# xmcd CD database file
#
# Track frame offsets:
#	150
#	11285
#	17095
#	25422
#	39815
#	47525
#	59740
#	68965
#	76962
#	96580
#	107660
#	123415
#	140405
#	145817
#	155967
#	170732
#	176772
#	192485
#	196347
#	204230
#
# Disc length: 2834 seconds
#
# Revision: 0
# Processed by: cddbd v1.5.2PL0 Copyright (c) Steve Scherf et al.
# Submitted via: Feurio! 1.67 - http://www.feurio.com
#
DISCID=1f0b1014
DTITLE=Johnny Cash - Hayride Anthology
DYEAR=2004
DGENRE=Country
TTITLE0=Give My Love To Rose
TTITLE1=Southern Maid Doughnuts Commercial
TTITLE2=Rock Island Line
TTITLE3=Goodbye Little Darlin' Goodbye
TTITLE4=Five Feet High and Rising
TTITLE5=Big River
TTITLE6=Five Feet High and Rising
TTITLE7=Guess Things Happen That Way
TTITLE8=I Got Stripes
TTITLE9=Folsom Prison Blues
TTITLE10=When I've Learned Enough
TTITLE11=Ballad Of The Harp Weaver
TTITLE12=The Rebel - Johnny Yuma
TTITLE13=The Rebel - Johnny Yuma
TTITLE14=Orange Blossom Special
TTITLE15=Busted
TTITLE16=It Ain't Me Babe
TTITLE17=Guess Things Happen That Way
TTITLE18=Ballad Of A Teenage Queen
TTITLE19=Hey Porter
EXTD=Live Aufnahmen von 1959 bis 1965
EXTT0=07.03.1959
EXTT1=07.03.1959
EXTT2=07.03.1959
EXTT3=07.03.1959
EXTT4=07.03.1959
EXTT5=24.02.1962
EXTT6=24.02.1962
EXTT7=24.02.1962
EXTT8=24.02.1962
EXTT9=24.02.1962
EXTT10=24.02.1962
EXTT11=24.02.1962
EXTT12=24.02.1962
EXTT13=21.04.1962
EXTT14=21.04.1962
EXTT15=15.06.1963
EXTT16=27.11.1965
EXTT17=27.11.2965
EXTT18=27.11.1965
EXTT19=27.11.1965
PLAYORDER=
